<svg width="24" height="23" viewBox="0 0 24 23" fill="none" xmlns="http://www.w3.org/2000/svg">
<path fill-rule="evenodd" clip-rule="evenodd" d="M18.384 6.20691C18.384 9.64456 15.5073 12.4329 11.9604 12.4329C8.41357 12.4329 5.53687 9.62549 5.53687 6.20691C5.53687 2.78835 8.41382 0 11.9604 0C15.5073 0 18.384 2.76927 18.384 6.20691ZM16.6897 6.20691C16.6897 3.68593 14.5615 1.62335 11.9604 1.62335C9.35938 1.62335 7.23145 3.6859 7.23145 6.20688C7.23145 8.72786 9.35962 10.7904 11.9604 10.7904C14.5615 10.7904 16.6897 8.72789 16.6897 6.20691Z" fill="#FFAC53"/>
<path fill-rule="evenodd" clip-rule="evenodd" d="M23.1528 22.1539H0.847168C0.374268 22.1539 0 21.791 0 21.3326C0 17.0164 3.62573 13.5215 8.05908 13.5215H15.9409C20.394 13.5215 24 17.0356 24 21.3326C24 21.791 23.6257 22.1539 23.1528 22.1539ZM15.9409 15.1639H8.05908C4.82764 15.1639 2.16748 17.513 1.75366 20.5114H22.2463C21.8325 17.4939 19.1724 15.1639 15.9409 15.1639Z" fill="#FFAC53"/>
</svg>
