<svg width="24" height="24" viewBox="0 0 24 24" fill="none" xmlns="http://www.w3.org/2000/svg">
<path d="M19 10.5C20.2 9.4 21 7.8 21 6C21 2.7 18.3 0 15 0C12 0 9.6 2 9.1 5H9C5.7 5 3 7.7 3 11C3 12.8 3.8 14.4 5 15.5C3.2 15.9 1.5 17 0 19V23C0 23.6 0.4 24 1 24H17C17.6 24 18 23.6 18 23V19H23C23.6 19 24 18.6 24 18V14C22.6 12 20.8 10.9 19 10.5ZM15 2C17.2 2 19 3.8 19 6C19 8.2 17.3 10 15 10C15 7.9 13.1 6.1 11.1 5.4C11.4 3.5 13 2 15 2ZM5 11C5 8.8 6.8 7 9 7C11.2 7 13 8.8 13 11C13 13.2 11.2 15 9 15C6.8 15 5 13.2 5 11ZM16 22H2V20C2 20 4 17 9 17C14 17 16 20 16 20V22ZM22 17H16.1C15.1 16.2 14.1 15.7 13 15.5C14 14.6 14.7 13.4 14.9 12H15C20 12 22 15 22 15V17Z" fill="white"/>
</svg>
