<svg width="23" height="23" viewBox="0 0 23 23" fill="none" xmlns="http://www.w3.org/2000/svg">
<path d="M17.6506 8.61327V5.32755H15.955V2.05357H12.2113V0H10.7887V2.05357H7.04502V5.32755H5.34942V8.61327H0V23H23V8.61327H17.6506ZM5.34942 21.5918H1.42268V16.5929H5.34942V21.5918ZM5.34942 15.1847H1.42268V13.3071H5.34942V15.1847ZM5.34942 11.899H1.42268V10.0214H5.34942V11.899ZM8.4677 3.46173H14.5323V5.32755H8.4677V3.46173ZM16.2279 21.5918H13.634V18.2357H12.2113V21.5918H10.7887V18.2357H9.36598V21.5918H6.7721V16.5929H16.2279V21.5918H16.2279ZM16.2279 15.1847H6.7721V13.3071H16.2279V15.1847H16.2279ZM16.2279 11.899H6.7721V10.0214H16.2279V11.899H16.2279ZM16.2279 8.61327H6.7721V6.73571H16.2279V8.61327H16.2279ZM21.5773 21.5918H17.6506V16.5929H21.5773V21.5918ZM21.5773 15.1847H17.6506V13.3071H21.5773V15.1847ZM21.5773 11.899H17.6506V10.0214H21.5773V11.899Z" fill="white"/>
</svg>
