<svg width="26" height="18" viewBox="0 0 26 18" fill="none" xmlns="http://www.w3.org/2000/svg">
<path d="M25.7516 5.1625C22.3129 1.83385 17.7844 0.000489113 13.0008 0C13.0003 0 13.0003 0 12.9999 0C12.9995 0 12.9993 0 12.999 0C8.21559 0.000489113 3.6872 1.83377 0.24837 5.1625C-0.0745991 5.47505 -0.0837803 5.99114 0.227814 6.31518C0.387226 6.48099 0.599776 6.56438 0.812651 6.56438C1.0157 6.56438 1.21906 6.48841 1.37669 6.3358C4.51123 3.30167 8.63922 1.63062 13 1.63038C17.3608 1.63062 21.4889 3.30167 24.6234 6.3358C24.9463 6.64851 25.4607 6.6393 25.7723 6.31518C26.0838 5.99114 26.0746 5.47505 25.7516 5.1625Z" fill="white"/>
<path d="M12.9995 5.90146C7.35522 5.90146 3.12665 9.7401 1.57063 11.3904C1.27431 11.7047 1.27431 12.1965 1.57063 12.5108C3.12648 14.1613 7.35482 18 12.9995 18C18.6445 18 22.8727 14.1612 24.4285 12.5108C24.7248 12.1965 24.7248 11.7047 24.4285 11.3904C22.8725 9.7401 18.6441 5.90146 12.9995 5.90146ZM7.79381 8.77557C7.23985 9.73496 6.92793 10.856 6.92793 12.0383C6.92793 13.1217 7.18801 14.1548 7.66097 15.0609C5.7546 14.1235 4.25326 12.87 3.30426 11.9506C4.27528 11.0101 5.82415 9.71931 7.79381 8.77557ZM10.9156 16.1692C9.45627 15.3691 8.55293 13.7948 8.55293 12.0383C8.55293 10.0323 9.74048 8.26925 11.5122 7.6352C11.9951 7.56917 12.4909 7.53184 12.9995 7.53184C13.3794 7.53184 13.752 7.55327 14.1177 7.59085C15.9408 8.17314 17.2113 9.99631 17.2113 12.0383C17.2113 13.8266 16.2445 15.4586 14.7395 16.229C14.1775 16.3187 13.5973 16.3696 12.9995 16.3696C12.279 16.3696 11.5834 16.2968 10.9156 16.1692ZM18.0101 15.2172C18.5399 14.2705 18.8363 13.1772 18.8363 12.0384C18.8363 10.8104 18.5048 9.63861 17.8756 8.62272C20.0025 9.57575 21.6703 10.9582 22.6949 11.9506C21.6921 12.9223 20.0727 14.2668 18.0101 15.2172Z" fill="white"/>
<path d="M14.9421 12.0384C13.805 12.0384 12.8821 11.1138 12.8821 9.97488C11.7449 9.97488 10.8223 10.8994 10.8223 12.0384C10.8223 13.1773 11.7449 14.1019 12.8821 14.1019C14.0195 14.1018 14.9421 13.1772 14.9421 12.0384Z" fill="white"/>
</svg>
